<?xml version="1.0" encoding="UTF-8" standalone="no"?>
<svg
   width="24"
   height="24"
   version="1.1"
   id="svg6"
   sodipodi:docname="shutdown.svg"
   inkscape:version="1.4 (1:1.4+202410161351+e7c3feb100)"
   xmlns:inkscape="http://www.inkscape.org/namespaces/inkscape"
   xmlns:sodipodi="http://sodipodi.sourceforge.net/DTD/sodipodi-0.dtd"
   xmlns="http://www.w3.org/2000/svg"
   xmlns:svg="http://www.w3.org/2000/svg">
  <defs
     id="defs10" />
  <sodipodi:namedview
     id="namedview8"
     pagecolor="#ffffff"
     bordercolor="#666666"
     borderopacity="1.0"
     inkscape:pageshadow="2"
     inkscape:pageopacity="0.0"
     inkscape:pagecheckerboard="0"
     showgrid="false"
     inkscape:zoom="6.5625"
     inkscape:cx="11.352381"
     inkscape:cy="10.133333"
     inkscape:window-width="1920"
     inkscape:window-height="1056"
     inkscape:window-x="0"
     inkscape:window-y="0"
     inkscape:window-maximized="1"
     inkscape:current-layer="svg6"
     inkscape:showpageshadow="2"
     inkscape:deskcolor="#d1d1d1" />
  <path
     id="path1955"
     style="color:#000000;fill:#44475a;fill-opacity:1;stroke-linecap:square;stroke-linejoin:round;-inkscape-stroke:none;paint-order:fill markers stroke"
     d="m 11.027309,3.1584845 v 7.5234375 h 1.822265 V 3.1584845 Z M 8.2284807,5.6448126 7.607387,6.0647345 C 7.1953106,6.3431277 6.8111839,6.6597657 6.4609027,7.0100469 5.059777,8.4111724 4.1913713,10.353666 4.1913713,12.488563 c 0,4.269793 3.4782539,7.748047 7.7480467,7.748047 4.269794,0 7.746094,-3.478253 7.746094,-7.748047 0,-2.134897 -0.866453,-4.0773906 -2.267578,-5.4785161 C 17.067653,6.6597652 16.683526,6.3431278 16.271449,6.0647345 l -0.621094,-0.4199219 -0.839843,1.2441406 0.621093,0.4199219 c 0.332434,0.2245877 0.640986,0.4788758 0.923829,0.7617187 1.131373,1.1313737 1.830078,2.6884022 1.830078,4.4179692 0,3.459134 -2.786959,6.248047 -6.246094,6.248047 -3.4591333,0 -6.2480467,-2.788914 -6.2480466,-6.248047 0,-1.729567 0.6987044,-3.2865955 1.8300781,-4.4179692 C 7.804293,7.7877504 8.1147971,7.5334629 8.4472307,7.3088751 L 9.0683244,6.8889532 Z" />
</svg>
